:FULLY-SPECIFIED
:FORCE-ALL-JOINTS-BE-3DOF
:DEGREES
356
root 9.27807 17.0765 14.1715 6.57428 8.52115 -2.04986
lfemur -16.2184 7.70065 -14.5341
ltibia 63.8672 -0 0
lfoot -4.37057 11.5302 0.0041277
ltoes -3.94466 0 0
rfemur -23.0338 4.04923 26.7392
rtibia 32.8406 -0 0
rfoot -14.6205 1.55218 -0.000365336
rtoes -10.5565 0 0
lowerback -6.23594 -2.16135 -1.0326
upperback -1.39439 -2.88031 2.86
thorax 2.25546 -1.44898 3.2945
lowerneck -19.5981 -6.03023 -13.3777
upperneck 20.4837 -7.86325 14.0845
head 10.9898 -3.05193 6.17801
lclavicle -4.0171e-16 -7.75262e-15 0
lhumerus -37.7102 -20.9854 99.4708
lradius 25.1792 -0 0
lwrist 6.64568 0 0
lhand -10.5535 -20.2381 0.0162519
lfingers 7.12502 0 0
lthumb 15.4498 9.15284 0.0131854
rclavicle -4.0171e-16 -7.75262e-15 0
rhumerus -41.5703 12.7385 -84.8235
rradius 39.2705 -0 0
rwrist -23.0213 0 0
rhand -30.7088 -29.064 0.00387357
rfingers 7.12502 0 0
rthumb -4.00196 -59.006 0.00372935
357
root 9.27802 17.0812 14.2914 6.55237 8.27456 -2.09789
lfemur -17.6219 7.57996 -14.8428
ltibia 64.0413 -0 0
lfoot -5.2068 11.4171 0.00660468
ltoes -3.90219 0 0
rfemur -22.4186 4.27404 26.881
rtibia 32.593 -0 0
rfoot -14.9493 1.57765 -0.000584542
rtoes -10.9239 0 0
lowerback -6.18502 -2.00647 -0.958098
upperback -1.31979 -2.67971 2.84428
thorax 2.2872 -1.3493 3.25376
lowerneck -19.7552 -6.06184 -13.3606
upperneck 20.5598 -7.88523 14.0215
head 11.0478 -3.06132 6.14928
lclavicle 1.65654e-15 -3.57813e-15 0
lhumerus -38.4223 -21.2451 99.5448
lradius 25.6124 -0 0
lwrist 7.41433 0 0
lhand -11.5078 -20.6284 0.0260051
lfingers 7.12502 0 0
lthumb 14.5301 8.82428 0.0210982
rclavicle 1.65654e-15 -3.57813e-15 0
rhumerus -40.9915 13.3084 -84.8612
rradius 39.6257 -0 0
rwrist -23.0332 0 0
rhand -30.5822 -28.363 0.00619795
rfingers 7.12502 0 0
rthumb -3.87966 -58.3071 0.00596719
358
root 9.27798 17.0859 14.4112 6.53069 8.02796 -2.14581
lfemur -19.0244 7.45181 -15.1482
ltibia 64.2154 -0 0
lfoot -6.04304 11.304 0.0074304
ltoes -3.85972 0 0
rfemur -21.8025 4.49731 27.0253
rtibia 32.3455 -0 0
rfoot -15.2782 1.60311 -0.000657612
rtoes -11.2913 0 0
lowerback -6.13391 -1.85166 -0.883466
upperback -1.24525 -2.47908 2.82882
thorax 2.31887 -1.24959 3.21308
lowerneck -19.9123 -6.0934 -13.3435
upperneck 20.6359 -7.90712 13.9584
head 11.1058 -3.07069 6.12054
lclavicle 3.71479e-15 5.9635e-16 0
lhumerus -39.136 -21.504 99.6223
lradius 26.0457 -0 0
lwrist 8.18297 0 0
lhand -12.4621 -21.0188 0.0292565
lfingers 7.12502 0 0
lthumb 13.6103 8.49562 0.0237361
rclavicle 3.71479e-15 5.9635e-16 0
rhumerus -40.4117 13.8786 -84.893
rradius 39.9809 -0 0
rwrist -23.045 0 0
rhand -30.4555 -27.662 0.00697279
rfingers 7.12502 0 0
rthumb -3.75734 -57.6083 0.00671318
359
root 9.27794 17.0905 14.5311 6.50924 7.78133 -2.1936
lfemur -20.4258 7.31628 -15.4504
ltibia 64.3895 -0 0
lfoot -6.87927 11.1908 0.00660468
ltoes -3.81724 0 0
rfemur -21.1858 4.71903 27.172
rtibia 32.098 -0 0
rfoot -15.607 1.62857 -0.000584542
rtoes -11.6587 0 0
lowerback -6.0826 -1.69692 -0.808702
upperback -1.17078 -2.27843 2.81362
thorax 2.35047 -1.14987 3.17246
lowerneck -20.0695 -6.12492 -13.3263
upperneck 20.7121 -7.92894 13.8953
head 11.1638 -3.08002 6.0918
lclavicle 5.77304e-15 4.77083e-15 0
lhumerus -39.8514 -21.7619 99.7035
lradius 26.4789 -0 0
lwrist 8.95161 0 0
lhand -13.4164 -21.4092 0.0260051
lfingers 7.12502 0 0
lthumb 12.6906 8.16697 0.0210982
rclavicle 5.77304e-15 4.77083e-15 0
rhumerus -39.8308 14.449 -84.919
rradius 40.3361 -0 0
rwrist -23.0569 0 0
rhand -30.3288 -26.961 0.00619795
rfingers 7.12502 0 0
rthumb -3.63502 -56.9095 0.00596719
360
root 9.27789 17.0952 14.651 6.488 7.53469 -2.24127
lfemur -21.8259 7.17348 -15.749
ltibia 64.5636 -0 0
lfoot -7.7155 11.0777 0.0041277
ltoes -3.77477 0 0
rfemur -20.5682 4.93915 27.3212
rtibia 31.8504 -0 0
rfoot -15.9358 1.65404 -0.000365336
rtoes -12.0261 0 0
lowerback -6.03109 -1.54225 -0.733805
upperback -1.09638 -2.07777 2.79869
thorax 2.382 -1.05012 3.13189
lowerneck -20.2266 -6.15639 -13.309
upperneck 20.7883 -7.95066 13.8322
head 11.2218 -3.08932 6.06304
lclavicle 7.83129e-15 8.94532e-15 0
lhumerus -40.5684 -22.0189 99.7883
lradius 26.9122 -0 0
lwrist 9.72026 0 0
lhand -14.3707 -21.7995 0.0162519
lfingers 7.12502 0 0
lthumb 11.7709 7.83841 0.0131854
rclavicle 7.83129e-15 8.94532e-15 0
rhumerus -39.2486 15.0197 -84.939
rradius 40.6913 -0 0
rwrist -23.0688 0 0
rhand -30.2022 -26.26 0.00387357
rfingers 7.12502 0 0
rthumb -3.51272 -56.2106 0.00372935
361
root 9.27785 17.0998 14.7709 6.46698 7.28803 -2.28882
lfemur -23.2249 7.02348 -16.0439
ltibia 64.7377 0 0
lfoot -8.55172 10.9646 0
ltoes -3.7323 0 0
rfemur -19.9499 5.15766 27.4728
rtibia 31.6029 0 0
rfoot -16.2646 1.6795 0
rtoes -12.3935 0 0
lowerback -5.97938 -1.38764 -0.658774
upperback -1.02203 -1.87708 2.78402
thorax 2.41345 -0.950348 3.09138
lowerneck -20.3838 -6.18781 -13.2916
upperneck 20.8645 -7.97231 13.769
head 11.2798 -3.0986 6.03427
lclavicle 9.88954e-15 1.31198e-14 0
lhumerus -41.2872 -22.2749 99.8767
lradius 27.3454 0 0
lwrist 10.4889 0 0
lhand -15.3249 -22.1896 0
lfingers 7.12502 0 0
lthumb 10.8513 7.51001 0
rclavicle 9.88954e-15 1.31198e-14 0
rhumerus -38.665 15.5906 -84.9531
rradius 41.0465 0 0
rwrist -23.0807 0 0
rhand -30.0756 -25.559 0
rfingers 7.12502 0 0
rthumb -3.39045 -55.5118 0
362
root 9.28031 17.0933 14.8898 6.45412 7.00307 -2.33616
lfemur -24.4601 6.92585 -16.2829
ltibia 64.3144 -0 0
lfoot -9.37336 11.0625 -0.00351192
ltoes -4.04478 0 0
rfemur -19.4088 5.32677 27.6071
rtibia 31.492 -0 0
rfoot -16.591 1.71872 -0.000558726
rtoes -12.6579 0 0
lowerback -5.9556 -1.25749 -0.610968
upperback -1.00179 -1.70658 2.77233
thorax 2.40973 -0.864933 3.06639
lowerneck -20.2313 -6.16228 -13.3441
upperneck 20.8197 -7.95312 13.8453
head 11.2369 -3.09136 6.07525
lclavicle 1.01546e-14 7.62008e-15 0
lhumerus -41.8607 -21.8706 99.6462
lradius 27.5838 -0 0
lwrist 10.7658 0 0
lhand -15.1361 -22.2027 -0.000107899
lfingers 7.12502 0 0
lthumb 11.0333 7.48685 -0.000183971
rclavicle 1.01546e-14 7.62008e-15 0
rhumerus -38.1918 15.952 -84.936
rradius 41.3695 -0 0
rwrist -23.0452 0 0
rhand -30.0612 -25.7125 -9.65588e-05
rfingers 7.12502 0 0
rthumb -3.37653 -55.6655 -9.33862e-05
363
root 9.28277 17.0869 15.0087 6.4415 6.7181 -2.38341
lfemur -25.6946 6.82313 -16.5197
ltibia 63.8911 -0 0
lfoot -10.195 11.1605 -0.00561937
ltoes -4.35726 0 0
rfemur -18.8671 5.49461 27.743
rtibia 31.3811 -0 0
rfoot -16.9175 1.75795 -0.00089397
rtoes -12.9222 0 0
lowerback -5.93172 -1.12737 -0.563111
upperback -0.981577 -1.53607 2.76071
thorax 2.40598 -0.779519 3.04139
lowerneck -20.0788 -6.13662 -13.3965
upperneck 20.775 -7.93387 13.9215
head 11.194 -3.08408 6.11623
lclavicle 1.04196e-14 2.12037e-15 0
lhumerus -42.4342 -21.4685 99.412
lradius 27.8221 -0 0
lwrist 11.0426 0 0
lhand -14.9474 -22.2158 -0.000172638
lfingers 7.12502 0 0
lthumb 11.2154 7.46369 -0.000294354
rclavicle 1.04196e-14 2.12037e-15 0
rhumerus -37.7176 16.3132 -84.9158
rradius 41.6925 -0 0
rwrist -23.0097 0 0
rhand -30.0468 -25.866 -0.000154494
rfingers 7.12502 0 0
rthumb -3.3626 -55.8192 -0.000149418
364
root 9.28523 17.0804 15.1275 6.42912 6.43313 -2.43056
lfemur -26.9283 6.71538 -16.7541
ltibia 63.4679 -0 0
lfoot -11.0167 11.2584 -0.0063219
ltoes -4.66974 0 0
rfemur -18.3248 5.66116 27.8806
rtibia 31.2702 -0 0
rfoot -17.2439 1.79718 -0.00100572
rtoes -13.1865 0 0
lowerback -5.90773 -0.997263 -0.515202
upperback -0.961405 -1.36556 2.74914
thorax 2.40219 -0.694108 3.01638
lowerneck -19.9264 -6.11081 -13.4489
upperneck 20.7302 -7.91457 13.9977
head 11.1511 -3.07678 6.1572
lclavicle 1.06847e-14 -3.37935e-15 0
lhumerus -43.008 -21.0686 99.1741
lradius 28.0605 -0 0
lwrist 11.3195 0 0
lhand -14.7586 -22.2289 -0.000194218
lfingers 7.12502 0 0
lthumb 11.3975 7.44053 -0.000331148
rclavicle 1.06847e-14 -3.37935e-15 0
rhumerus -37.2423 16.6742 -84.8924
rradius 42.0155 -0 0
rwrist -22.9742 0 0
rhand -30.0324 -26.0195 -0.000173806
rfingers 7.12502 0 0
rthumb -3.34868 -55.9729 -0.000168096
365
root 9.28768 17.0739 15.2464 6.41699 6.14814 -2.47763
lfemur -28.1614 6.60263 -16.9861
ltibia 63.0446 -0 0
lfoot -11.8383 11.3564 -0.00561937
ltoes -4.98222 0 0
rfemur -17.782 5.8264 28.0198
rtibia 31.1592 -0 0
rfoot -17.5703 1.83641 -0.00089397
rtoes -13.4509 0 0
lowerback -5.88363 -0.867178 -0.467239
upperback -0.941269 -1.19505 2.73764
thorax 2.39836 -0.608697 2.99137
lowerneck -19.7739 -6.08487 -13.5012
upperneck 20.6855 -7.8952 14.0739
head 11.1082 -3.06944 6.19817
lclavicle 1.09497e-14 -8.87907e-15 0
lhumerus -43.5821 -20.6709 98.9326
lradius 28.2988 -0 0
lwrist 11.5964 0 0
lhand -14.5698 -22.242 -0.000172638
lfingers 7.12502 0 0
lthumb 11.5795 7.41737 -0.000294354
rclavicle 1.09497e-14 -8.87907e-15 0
rhumerus -36.766 17.0351 -84.8658
rradius 42.3385 -0 0
rwrist -22.9387 0 0
rhand -30.0179 -26.173 -0.000154494
rfingers 7.12502 0 0
rthumb -3.33476 -56.1267 -0.000149418
